    <svg xmlns="http://www.w3.org/2000/svg" width="1920" height="1080" viewBox="0 0 1920 1080">
      <defs>

<pattern id="tile" patternUnits="userSpaceOnUse" width="180" height="140">
  <rect width="180" height="140" fill="#fffbeb"/>
  <g fill="#f59e0b" opacity=".6">
    <path d="M30 20 c10 10 10 30 -5 40 c-5 -10 -15 -15 -25 -15 c15 -5 20 -15 30 -25z"/>
    <path d="M140 60 c12 8 14 28 -2 40 c-5 -8 -10 -14 -22 -16 c12 -6 15 -14 24 -24z"/>
    <path d="M80 100 c10 10 10 30 -5 40 c-5 -10 -10 -15 -20 -16 c14 -6 17 -13 25 -24z"/>
  </g>
</pattern>

      </defs>
      <rect width="100%" height="100%" fill="#fffbeb"/>
      <rect width="100%" height="100%" fill="url(#tile)"/>
    </svg>
