    <svg xmlns="http://www.w3.org/2000/svg" width="1920" height="1080" viewBox="0 0 1920 1080">
      <defs>

<pattern id="tile" patternUnits="userSpaceOnUse" width="160" height="160">
  <rect width="160" height="160" fill="#f0fdf4"/>
  <g fill="#16a34a" opacity=".6">
    <path d="M40 60
      c-6 -6 -6 -16 2 -22 c8 -6 16 -2 18 6 c4 -8 14 -10 20 -4 c6 6 6 16 -2 22
      c-6 5 -18 10 -18 10 s-10 -5 -20 -12z"/>
    <path d="M120 110
      c-6 -6 -6 -16 2 -22 c8 -6 16 -2 18 6 c4 -8 14 -10 20 -4 c6 6 6 16 -2 22
      c-6 5 -18 10 -18 10 s-10 -5 -20 -12z"/>
  </g>
</pattern>

      </defs>
      <rect width="100%" height="100%" fill="#f0fdf4"/>
      <rect width="100%" height="100%" fill="url(#tile)"/>
    </svg>
